<?xml version="1.0" encoding="utf-8"?>
<!-- Generator: Adobe Illustrator 18.0.0, SVG Export Plug-In . SVG Version: 6.00 Build 0)  -->
<!DOCTYPE svg PUBLIC "-//W3C//DTD SVG 1.1//EN" "http://www.w3.org/Graphics/SVG/1.1/DTD/svg11.dtd">
<svg version="1.1" id="Calque_1" xmlns="http://www.w3.org/2000/svg" xmlns:xlink="http://www.w3.org/1999/xlink" x="0px" y="0px"
	 viewBox="0 0 16.4 16.1" enable-background="new 0 0 16.4 16.1" xml:space="preserve">
<g>
	<path d="M2.7,12.2C2.3,12,2.1,11.7,2,11.4c-0.1-0.3-0.1-0.8,0-1.3l0.4-1.9c0.1-0.3,0.1-0.5,0.1-0.7c0-0.2-0.1-0.3-0.1-0.4
		C2.2,7,2.1,6.9,1.8,6.8l0.2-1.1c0.2,0,0.4,0,0.6-0.1c0.1-0.1,0.2-0.2,0.3-0.3C3,5.2,3,5,3.1,4.7l0.4-1.9c0.1-0.5,0.3-1,0.5-1.2
		c0.2-0.3,0.6-0.4,1-0.5c0.4,0,1,0,1.8,0.1L6.4,2.8c-0.3,0-0.5,0-0.6,0c-0.1,0-0.2,0.1-0.3,0.3L5.1,5.2C5,5.8,4.8,6.1,4.5,6.3
		c-0.3,0.2-0.6,0.3-1,0.3C3.9,6.8,4.1,7,4.3,7.3C4.5,7.6,4.5,8,4.4,8.5L4,10.6c0,0.2,0,0.3,0.1,0.4c0.1,0.1,0.3,0.2,0.6,0.2
		l-0.3,1.5C3.6,12.6,3.1,12.4,2.7,12.2z"/>
</g>
<g>
	<path d="M10.6,13.5c0.3,0,0.5,0,0.6,0s0.2-0.1,0.3-0.3l0.4-2.2c0.1-0.5,0.3-0.9,0.6-1c0.3-0.2,0.6-0.3,1-0.3
		c-0.4-0.2-0.7-0.4-0.8-0.7c-0.2-0.3-0.2-0.7-0.1-1.2l0.4-2.2c0-0.2,0-0.3-0.1-0.4c-0.1-0.1-0.3-0.2-0.6-0.2l0.3-1.5
		c0.7,0.2,1.3,0.3,1.7,0.5c0.4,0.2,0.6,0.5,0.7,0.8c0.1,0.3,0.1,0.8,0,1.3L14.5,8c-0.1,0.4-0.1,0.7,0,0.9s0.3,0.3,0.6,0.4l-0.2,1.1
		c-0.3,0-0.6,0-0.7,0.2c-0.1,0.1-0.2,0.4-0.3,0.8l-0.4,1.9c-0.1,0.5-0.3,0.9-0.5,1.2c-0.2,0.3-0.6,0.4-1,0.5c-0.4,0.1-1,0-1.8-0.1
		L10.6,13.5z"/>
</g>
<g>
	<path fill="#B71C1C" d="M6.1,12.1l0.4-2.2H6.1v-1h0.6l0.1-0.6H6.4v-1h0.7l0.4-2.1h1.3L8.3,7.2H9l0.4-2.1h1.2l-0.4,2.1h0.4v1h-0.6
		L10,8.8h0.5v1H9.8l-0.4,2.2H8.1l0.4-2.2H7.8l-0.4,2.2H6.1z M8,8.8h0.7l0.1-0.6H8.1L8,8.8z"/>
</g>
<g>
</g>
<g>
</g>
<g>
</g>
<g>
</g>
<g>
</g>
<g>
</g>
<g>
</g>
<g>
</g>
<g>
</g>
<g>
</g>
<g>
</g>
<g>
</g>
<g>
</g>
<g>
</g>
<g>
</g>
</svg>
